<svg version="1.1" id="Layer_1" xmlns="http://www.w3.org/2000/svg" xmlns:xlink="http://www.w3.org/1999/xlink" x="0px" y="0px"
	 width="100%" viewBox="0 0 574 374" enable-background="new 0 0 574 374" xml:space="preserve">
<path fill="#FFFFFF" opacity="1.000000" stroke="none" 
	d="
M489.761169,1.240764 
	C517.354248,1.000000 544.708435,1.000000 572.531372,1.000000 
	C574.383362,2.745455 573.979797,4.817629 573.980103,6.779812 
	C573.998657,124.904579 574.002075,243.029343 573.987854,361.154114 
	C573.986816,369.886566 570.120544,373.980713 561.760376,373.980560 
	C378.491913,373.977203 195.223434,374.051208 11.457941,373.912506 
	C5.928007,372.130371 3.620434,368.455627 3.434782,363.272186 
	C3.369205,361.441284 3.378720,359.609711 3.378700,357.778290 
	C3.377466,242.227142 3.373506,126.676003 3.400540,11.124863 
	C3.401272,7.996640 2.874211,4.774397 4.697791,1.396263 
	C163.020889,1.000000 321.041779,1.000000 479.531342,1.000000 
	C483.058685,3.443563 486.119751,5.839769 489.761169,1.240764 
z"/>
<path fill="#F8F8F8" opacity="1.000000" stroke="none" 
	d="
M10.773097,373.305756 
	C193.915649,372.999176 376.831238,372.946442 559.746460,373.180878 
	C567.626465,373.190979 573.200012,367.574341 573.182861,359.771515 
	C572.920166,240.493896 573.000000,121.215515 573.000000,1.468657 
	C573.621094,1.348995 574.736145,0.286325 574.956482,1.506692 
	C575.160461,2.635974 575.000000,3.831083 575.000000,4.997207 
	C575.000000,126.940407 574.975769,248.883636 575.112793,370.826691 
	C575.117065,374.637939 574.078552,375.081543 570.677063,375.079895 
	C384.430511,374.989807 198.183914,375.000000 11.468657,375.000000 
	C10.623537,374.611237 10.472256,374.148804 10.773097,373.305756 
z"/>
<path fill="#F8F8F8" opacity="1.000000" stroke="none" 
	d="
M10.694336,372.849854 
	C11.000087,373.443512 11.000045,373.888214 11.000002,374.666473 
	C7.670967,375.000000 3.059574,376.297394 1.375674,374.632965 
	C-0.288755,372.987823 1.000558,368.350555 1.000540,365.025818 
	C0.999902,245.014175 0.998673,125.002541 1.011329,4.990901 
	C1.011541,2.977117 -0.018797,0.061038 4.500000,1.000000 
	C4.999857,120.940094 5.034749,240.880234 4.880994,360.820129 
	C4.874328,366.019714 6.240629,369.807373 10.694336,372.849854 
z"/>
<path fill="#EAEAEA" opacity="1.000000" stroke="none" 
	d="
M489.545898,1.000000 
	C487.242584,7.340742 485.761047,7.443431 480.038757,1.343880 
	C483.030609,1.000000 486.061188,1.000000 489.545898,1.000000 
z"/>
<path fill="#475BB4" opacity="1.000000" stroke="none" 
	d="
M296.103455,176.680237 
	C295.037354,176.340378 294.339783,176.133041 293.291687,175.827240 
	C284.488373,168.486908 277.094177,160.161972 269.122223,152.427689 
	C264.954926,148.384598 260.812103,144.309372 256.820923,140.092484 
	C249.723907,132.594131 250.017136,119.844650 257.400085,112.601746 
	C259.595306,110.448158 262.261322,108.981689 265.345703,108.873009 
	C270.634460,108.686661 275.943878,108.281273 281.581604,109.314896 
	C284.214844,109.860596 285.731750,111.403870 287.264893,112.937721 
	C297.942871,123.620483 308.663940,134.260498 319.290070,144.994629 
	C326.798859,152.579742 327.799683,160.141144 322.659393,169.395584 
	C319.772614,174.592850 315.564240,177.626785 309.362915,177.287323 
	C305.069031,177.052246 300.739166,177.785568 296.103455,176.680237 
z"/>
<path fill="#47BAF3" opacity="1.000000" stroke="none" 
	d="
M295.823944,176.848953 
	C299.843842,175.546738 304.057373,175.821884 308.154846,176.143417 
	C315.962524,176.756027 320.222046,172.639648 322.990967,166.135056 
	C325.850922,159.416656 325.224579,152.901413 320.131805,147.678146 
	C307.817780,135.048645 295.169067,122.745483 282.344482,110.202713 
	C281.865753,109.954353 281.697784,109.814049 281.740051,109.421616 
	C293.442017,109.241066 304.933746,109.316750 316.425568,109.383156 
	C330.414917,109.463997 338.898193,117.854218 338.913391,131.678268 
	C338.930023,146.840347 338.911621,162.002457 338.915344,177.164551 
	C338.916901,183.476913 336.863464,188.901199 332.077362,193.166763 
	C325.603241,198.936783 318.712463,199.066422 312.039551,193.415146 
	C306.195343,188.465714 300.703857,183.151337 295.823944,176.848953 
z"/>
<path fill="#E45C80" opacity="1.000000" stroke="none" 
	d="
M281.734833,108.910248 
	C281.950226,109.169487 281.956207,109.634438 281.994934,109.864548 
	C276.562500,110.043640 271.089203,109.880829 265.620880,109.983185 
	C262.294708,110.045433 259.605255,111.772453 257.516876,114.282364 
	C250.535950,122.672447 252.258621,134.535400 258.675720,140.388596 
	C269.336121,150.112213 279.230133,160.676956 289.421021,170.913223 
	C290.694641,172.192535 292.235504,173.278580 292.912140,175.408569 
	C280.658783,176.495483 268.351654,176.408554 256.085785,175.851974 
	C246.368286,175.411041 238.687866,166.426086 238.490814,155.585388 
	C238.203873,139.798920 238.343491,124.002769 238.452194,108.211792 
	C238.517700,98.695793 246.304443,87.394760 257.967896,88.886269 
	C260.754730,89.242661 263.073120,89.961853 265.046204,91.982620 
	C270.503448,97.571800 276.023956,103.099190 281.734833,108.910248 
z"/>
<path fill="#595959" opacity="1.000000" stroke="none" 
	d="
M181.546844,222.019012 
	C181.550720,218.358368 181.543640,215.192307 181.563416,212.026413 
	C181.571045,210.806381 181.755539,209.491409 183.260147,209.429901 
	C184.745544,209.369202 185.128433,210.646591 185.169876,211.862946 
	C185.254959,214.359772 184.848495,216.938217 185.333160,219.344330 
	C186.740570,226.331451 192.297058,221.736572 195.849060,222.678177 
	C198.065338,223.265686 201.515839,223.890564 201.289154,219.337540 
	C201.157089,216.684631 201.306717,214.010498 201.464767,211.353943 
	C201.526901,210.309296 202.190140,209.358414 203.360336,209.400620 
	C204.567032,209.444153 204.999222,210.449493 205.001465,211.528442 
	C205.018753,219.859833 205.023453,228.191360 204.986725,236.522644 
	C204.981171,237.780548 204.449783,238.918472 202.975540,238.858429 
	C201.701981,238.806580 201.546005,237.585144 201.410919,236.632675 
	C201.248260,235.485672 201.274490,234.308319 201.264862,233.143738 
	C201.203064,225.674866 202.101425,226.378296 194.145035,226.328384 
	C193.145264,226.322113 192.124054,226.461258 191.149200,226.305359 
	C186.200836,225.514053 184.747635,227.749741 185.139236,232.439774 
	C185.319382,234.597397 186.499985,238.578690 183.059784,238.497650 
	C180.310791,238.432892 181.763916,234.628494 181.606949,232.506943 
	C181.361710,229.192505 181.544937,225.846359 181.546844,222.019012 
z"/>
<path fill="#575757" opacity="1.000000" stroke="none" 
	d="
M255.620483,238.620911 
	C241.019455,239.307648 243.081314,239.383102 242.936295,227.162506 
	C242.885132,222.852478 243.043839,218.537231 242.891327,214.232010 
	C242.768341,210.760696 244.304443,209.401169 247.660217,209.580154 
	C249.974731,209.703629 252.302933,209.544617 254.621933,209.614578 
	C263.090942,209.870071 268.227417,214.808197 268.750519,223.140671 
	C269.267395,231.373093 264.276031,237.451309 255.620483,238.620911 
z"/>
<path fill="#5D5D5D" opacity="1.000000" stroke="none" 
	d="
M371.548767,214.481384 
	C371.604919,218.743118 371.436768,222.585831 371.770081,226.384552 
	C372.258728,231.953781 375.954742,235.107193 381.396210,235.040512 
	C386.772827,234.974625 390.472260,231.643539 390.800781,226.106049 
	C391.066315,221.630478 390.862061,217.127853 390.900726,212.637527 
	C390.913727,211.130539 390.886078,209.329376 393.037872,209.466934 
	C394.799652,209.579575 394.776611,211.210297 394.774323,212.549286 
	C394.766083,217.371597 394.942810,222.207642 394.641541,227.012909 
	C394.189240,234.227142 388.648956,239.097168 381.301208,239.130157 
	C373.898529,239.163391 368.153900,233.983627 367.749725,226.635788 
	C367.521729,222.490021 367.655670,218.321426 367.712952,214.164307 
	C367.736908,212.425797 367.144623,209.753693 369.558167,209.691666 
	C372.055084,209.627518 371.341400,212.334457 371.548767,214.481384 
z"/>
<path fill="#5D5D5D" opacity="1.000000" stroke="none" 
	d="
M212.582550,229.278870 
	C215.611938,223.332901 218.464554,217.712265 221.350052,212.108582 
	C222.012634,210.821854 222.395447,209.046646 224.249420,209.092331 
	C225.777176,209.129974 226.286530,210.622803 226.896957,211.782532 
	C230.836884,219.267929 234.777740,226.752975 238.671051,234.262619 
	C239.329224,235.532181 240.503540,237.142853 238.804199,238.246597 
	C236.755157,239.577469 235.948380,237.509598 235.009094,236.239182 
	C233.697083,234.464645 233.651215,231.348480 230.703049,231.305634 
	C225.923691,231.236160 220.985641,230.296158 216.425446,231.862640 
	C214.878891,232.393936 214.233902,235.376663 213.023849,237.133728 
	C212.418869,238.012146 211.779831,239.422394 210.330826,238.755035 
	C208.833054,238.065231 208.796814,236.797424 209.529785,235.401016 
	C210.532043,233.491577 211.458679,231.542465 212.582550,229.278870 
z"/>
<path fill="#5B5B5B" opacity="1.000000" stroke="none" 
	d="
M316.458252,210.644608 
	C318.548401,207.938370 319.900238,208.821442 321.059631,211.099716 
	C325.135864,219.109619 329.220154,227.115479 333.318878,235.113907 
	C333.959595,236.364151 334.604034,237.674866 333.037720,238.592758 
	C331.014099,239.778671 330.540436,237.858093 329.721313,236.701035 
	C328.425598,234.870712 328.412354,231.597626 325.699219,231.415924 
	C320.748108,231.084320 315.733398,231.204483 310.785126,231.616104 
	C309.188446,231.748917 308.953369,234.212906 308.028717,235.563782 
	C307.097534,236.924179 306.756714,239.884140 304.431671,238.570297 
	C302.408203,237.426834 304.120422,235.272644 304.895294,233.706741 
	C308.661163,226.096298 312.484314,218.514175 316.458252,210.644608 
z"/>
<path fill="#505050" opacity="1.000000" stroke="none" 
	d="
M353.513123,210.117249 
	C358.596832,210.462524 361.420654,213.248245 362.379517,217.423416 
	C363.338379,221.598862 362.236237,225.382370 357.783264,227.359192 
	C355.971313,228.163574 355.732300,229.340408 357.130585,230.823715 
	C358.386200,232.155670 359.591919,233.534592 360.821594,234.891037 
	C361.727570,235.890396 362.914764,237.051727 361.746399,238.326859 
	C360.328583,239.874329 359.378571,238.099670 358.534180,237.298126 
	C356.483093,235.351059 354.490814,233.327484 352.631317,231.198120 
	C351.330566,229.708633 349.912964,229.058029 347.898682,228.993820 
	C341.072571,228.776245 340.994720,228.698730 341.246246,235.501648 
	C341.299408,236.939606 341.536957,238.537201 339.904053,238.495346 
	C338.497131,238.459290 338.307709,236.758896 338.328064,235.325775 
	C338.439270,227.500504 338.474945,219.674164 338.712219,211.404007 
	C343.510101,209.014450 348.343170,210.405045 353.513123,210.117249 
z"/>
<path fill="#545454" opacity="1.000000" stroke="none" 
	d="
M281.696533,215.063568 
	C283.431549,212.995926 282.970581,209.133667 286.001343,209.239029 
	C288.848236,209.337997 289.005157,212.841476 290.125122,214.925903 
	C293.591095,221.376526 296.864014,227.931519 300.164124,234.470093 
	C300.800751,235.731400 302.063782,237.307571 300.049042,238.324158 
	C298.098846,239.308151 297.230164,237.524918 296.854736,236.172287 
	C295.460266,231.148254 291.788300,230.442780 287.526764,231.184921 
	C283.728088,231.846466 279.185760,229.015259 276.175690,233.850082 
	C275.060913,235.640686 274.803925,240.181305 271.665802,238.242905 
	C268.779724,236.460190 272.287628,233.611832 273.209442,231.371643 
	C274.001892,229.445892 275.594604,227.860062 276.096497,225.384827 
	C278.285339,221.988541 279.561920,218.491837 281.696533,215.063568 
z"/>
<path fill="#545454" opacity="1.000000" stroke="none" 
	d="
M152.022186,212.352448 
	C151.203247,209.194305 153.429825,209.681778 154.908752,209.662369 
	C161.387451,209.577271 167.867935,209.608719 174.347641,209.632858 
	C175.646957,209.637695 177.441086,209.469894 177.489761,211.228546 
	C177.548798,213.361282 175.591522,213.041092 174.142960,213.136887 
	C166.488159,213.643082 166.488052,213.644135 166.487106,221.442825 
	C166.486603,225.596558 166.574615,229.753006 166.446411,233.902771 
	C166.390076,235.726410 167.366089,238.732971 164.668396,238.835434 
	C161.930069,238.939438 162.637054,235.943100 162.603333,234.091888 
	C162.512619,229.109070 162.253387,224.097168 162.662659,219.146561 
	C163.059036,214.351852 161.475891,212.404648 156.634903,213.088394 
	C155.210846,213.289505 153.639038,213.462357 152.022186,212.352448 
z"/>
<path fill="#595959" opacity="1.000000" stroke="none" 
	d="
M400.748413,231.441742 
	C403.904877,230.409653 404.219116,233.864685 406.704956,234.754272 
	C407.724091,235.047058 408.357269,235.288696 409.282898,235.738297 
	C409.876495,235.570663 410.182007,235.500259 410.738647,235.745895 
	C413.508728,236.504013 415.873077,235.459625 418.649292,234.994659 
	C421.352997,233.185181 423.866699,231.441849 421.237366,227.589630 
	C420.347931,227.047012 419.743622,226.772980 418.880615,226.262970 
	C414.444122,226.670258 410.423645,225.795029 406.405579,225.113510 
	C403.664764,224.648590 401.634064,223.102982 400.737976,220.020615 
	C400.422852,218.635056 400.127655,217.589478 400.651154,215.968384 
	C401.106873,214.753860 401.365051,214.048706 401.865875,213.188690 
	C402.475647,212.539734 402.928772,212.143478 403.736511,211.706009 
	C404.314453,211.340164 404.620483,211.109528 405.220337,210.867340 
	C408.746826,209.132797 412.105713,208.370422 416.168823,209.677551 
	C416.884460,209.567673 417.192963,209.496399 417.754517,209.765900 
	C418.644318,209.994080 419.270050,210.235123 420.161835,210.730392 
	C422.371796,211.006073 423.338135,212.329300 424.229065,214.104401 
	C424.618195,215.701111 423.935394,216.232254 422.326538,216.238037 
	C421.339264,215.645294 420.816101,215.238678 420.145782,214.529373 
	C416.348877,212.676102 412.505981,212.940720 408.345032,213.041473 
	C407.576416,213.320450 407.145325,213.580627 406.342407,213.915527 
	C404.483551,215.544128 403.544159,217.266083 404.420135,219.811157 
	C404.560913,220.120453 404.839508,220.133484 404.862305,220.271057 
	C406.853119,221.719086 409.247742,221.737167 411.621582,222.798553 
	C412.957642,222.966827 414.051453,222.888565 415.554077,222.861115 
	C418.306824,222.982758 420.682678,222.921051 423.007874,224.697189 
	C423.897034,225.307053 424.437531,225.740906 425.045166,226.432434 
	C426.174957,228.582245 426.163635,230.554596 425.350006,233.036896 
	C424.694885,234.304779 424.241577,235.107574 423.516632,236.000458 
	C416.779724,240.016891 410.228790,240.401062 403.228638,236.304779 
	C402.297852,235.562561 401.714233,235.081833 401.058289,234.320038 
	C400.592987,233.392715 400.436401,232.693542 400.748413,231.441742 
z"/>
<path fill="#5B5B5B" opacity="1.000000" stroke="none" 
	d="
M403.033569,236.348633 
	C409.391968,238.533112 415.908203,239.148987 422.840271,236.096680 
	C416.684967,240.779724 409.986572,240.542450 403.033569,236.348633 
z"/>
<path fill="#707070" opacity="1.000000" stroke="none" 
	d="
M353.619202,209.954361 
	C349.328857,211.846191 344.528748,210.436401 339.360992,210.953217 
	C343.450928,207.796951 348.457458,209.857193 353.619202,209.954361 
z"/>
<path fill="#5B5B5B" opacity="1.000000" stroke="none" 
	d="
M408.452759,213.127533 
	C412.014923,210.989944 415.879913,211.755127 419.843475,213.936783 
	C416.386505,212.934952 412.665283,212.816971 408.452759,213.127533 
z"/>
<path fill="#707070" opacity="1.000000" stroke="none" 
	d="
M281.605743,214.964401 
	C281.220398,218.637955 279.349335,221.922211 276.623535,225.027222 
	C277.976685,221.789185 279.659363,218.476959 281.605743,214.964401 
z"/>
<path fill="#5B5B5B" opacity="1.000000" stroke="none" 
	d="
M416.347595,209.584106 
	C413.223633,210.205902 409.724701,209.582352 405.966797,210.864151 
	C408.758850,208.447006 412.361115,208.509705 416.347595,209.584106 
z"/>
<path fill="#5B5B5B" opacity="1.000000" stroke="none" 
	d="
M418.624146,234.924896 
	C416.661774,236.500015 414.273560,237.715485 411.175720,236.166412 
	C413.383636,235.539780 415.820343,235.203644 418.624146,234.924896 
z"/>
<path fill="#5B5B5B" opacity="1.000000" stroke="none" 
	d="
M423.172516,224.590057 
	C421.055115,224.415573 418.753632,223.957916 416.207520,223.206085 
	C418.506622,222.359970 420.813934,222.999100 423.172516,224.590057 
z"/>
<path fill="#5B5B5B" opacity="1.000000" stroke="none" 
	d="
M411.591797,222.897995 
	C409.425629,223.040222 407.084106,222.710510 405.012543,220.726746 
	C406.720825,222.038712 409.362488,221.454788 411.591797,222.897995 
z"/>
<path fill="#5B5B5B" opacity="1.000000" stroke="none" 
	d="
M425.404297,233.264557 
	C425.113983,231.553787 425.079742,229.605621 425.078918,227.173782 
	C426.917084,228.662186 426.577240,230.819717 425.404297,233.264557 
z"/>
<path fill="#5B5B5B" opacity="1.000000" stroke="none" 
	d="
M404.447327,219.713028 
	C401.376617,217.708405 403.334839,215.908340 405.623657,214.048309 
	C404.895905,215.599106 403.564789,217.128983 404.447327,219.713028 
z"/>
<path fill="#5B5B5B" opacity="1.000000" stroke="none" 
	d="
M421.953247,216.311920 
	C422.542664,215.735336 423.222870,215.418777 424.085876,214.756989 
	C425.177490,215.139572 425.353943,216.045914 424.529449,216.852921 
	C423.701172,217.663589 422.791443,217.404526 421.953247,216.311920 
z"/>
<path fill="#5B5B5B" opacity="1.000000" stroke="none" 
	d="
M400.620087,215.654495 
	C400.870026,216.512436 400.891357,217.565842 400.853333,219.145905 
	C399.586975,218.511292 399.736694,217.207230 400.620087,215.654495 
z"/>
<path fill="#5B5B5B" opacity="1.000000" stroke="none" 
	d="
M400.744324,230.917480 
	C400.993469,231.631088 401.006622,232.320099 401.002869,233.524033 
	C399.590637,233.177948 399.302887,232.148758 400.744324,230.917480 
z"/>
<path fill="#5B5B5B" opacity="1.000000" stroke="none" 
	d="
M420.341492,210.634979 
	C419.787201,210.722458 419.094452,210.598557 418.181458,210.190094 
	C418.847656,209.475784 419.524231,209.954391 420.341492,210.634979 
z"/>
<path fill="#5B5B5B" opacity="1.000000" stroke="none" 
	d="
M418.763214,226.340363 
	C419.361725,226.061707 420.154968,225.974014 420.869629,226.956299 
	C420.318268,226.992233 419.636475,226.768097 418.763214,226.340363 
z"/>
<path fill="#5B5B5B" opacity="1.000000" stroke="none" 
	d="
M409.417114,235.609512 
	C408.863861,235.715210 408.113831,235.603317 407.191864,235.258270 
	C407.753387,235.147369 408.486847,235.269653 409.417114,235.609512 
z"/>
<path fill="#5B5B5B" opacity="1.000000" stroke="none" 
	d="
M403.741486,211.563354 
	C403.846161,212.325439 403.433960,212.835236 402.373413,213.001617 
	C402.210663,212.214722 402.788483,211.835312 403.741486,211.563354 
z"/>
<path fill="#F8F8F8" opacity="1.000000" stroke="none" 
	d="
M246.726288,225.946136 
	C246.726273,223.962311 246.538589,222.439423 246.767426,220.981934 
	C247.182541,218.338120 245.317352,215.158447 248.056900,213.110123 
	C250.099350,211.583008 259.234406,213.206635 261.416077,215.103119 
	C265.315002,218.492371 266.291168,226.358109 263.355316,230.729172 
	C260.784241,234.557144 252.049652,237.136887 248.121964,235.309418 
	C246.760406,234.675903 246.764313,233.564468 246.745346,232.409943 
	C246.712631,230.419250 246.730026,228.427719 246.726288,225.946136 
z"/>
<path fill="#EAEAEA" opacity="1.000000" stroke="none" 
	d="
M219.937653,222.996658 
	C221.534821,220.307159 222.090317,217.408798 224.350372,215.555252 
	C226.217667,216.715439 226.726288,218.575699 227.406403,220.209442 
	C230.892059,228.582657 232.594452,227.767319 222.385941,228.062683 
	C217.691132,228.198502 217.678650,226.553635 219.937653,222.996658 
z"/>
<path fill="#EAEAEA" opacity="1.000000" stroke="none" 
	d="
M318.958618,227.990265 
	C310.848297,228.014481 311.425690,228.297440 314.845612,221.688049 
	C315.932922,219.586670 316.303436,215.874023 318.685577,215.963577 
	C320.931580,216.048019 321.181763,219.838181 322.521912,221.867630 
	C322.612152,222.004318 322.671753,222.161255 322.745392,222.308899 
	C325.555786,227.945419 325.555786,227.945419 318.958618,227.990265 
z"/>
<path fill="#F5F5F5" opacity="1.000000" stroke="none" 
	d="
M353.767212,225.041779 
	C352.558044,225.236649 351.745697,225.409164 350.924835,225.473099 
	C342.078156,226.162109 340.178162,223.998260 341.873230,215.263062 
	C342.034821,214.430267 342.143585,213.675995 342.955109,213.203949 
	C345.298553,211.840820 355.237671,213.393875 357.170166,215.441925 
	C360.388153,218.852371 359.250824,222.452164 353.767212,225.041779 
z"/>
<path fill="#EAEAEA" opacity="1.000000" stroke="none" 
	d="
M281.834534,220.910416 
	C283.318237,218.835449 283.114258,215.362045 285.782166,215.534729 
	C287.583496,215.651321 288.176910,218.647812 289.109589,220.470322 
	C292.998260,228.069077 292.982239,228.077271 284.733368,228.023697 
	C278.916626,227.985916 278.743622,227.610443 281.834534,220.910416 
z"/>
</svg>